# xmcd
#
# Track frame offsets: 
#        150
#        28504
#        61393
#        93124
#        122744
#        138250
#        175784
#        195385
#        209451
#        232860
#        274159
#        292553
#
# Disc length: 4252 seconds
#
# Revision: 0
# Processed by: cddbd v1.5.2PL0 Copyright (c) Steve Scherf et al.
# Submitted via: ExactAudioCopy v1.0b4
#
DISCID=9a109a0c
DTITLE=Snowy White and The White Flames - Live Flames
DYEAR=2007
DGENRE=Blues Rock
TTITLE0=I'll Be Moving On
TTITLE1=That Ain't Right
TTITLE2=What I'm Searching For
TTITLE3=Land Of Plenty
TTITLE4=Time Waits For No Man
TTITLE5=A Miracle I Need
TTITLE6=Wintersong
TTITLE7=The Emmerpeirissa Express
TTITLE8=White Flames Blues
TTITLE9=American Dream
TTITLE10=Long Grey Mare
TTITLE11=That's When I'll Stop Loving You
EXTD=
EXTT0=
EXTT1=
EXTT2=
EXTT3=
EXTT4=
EXTT5=
EXTT6=
EXTT7=
EXTT8=
EXTT9=
EXTT10=
EXTT11=
PLAYORDER=
